<svg id="Composant_15_5" data-name="Composant 15 – 5" xmlns="http://www.w3.org/2000/svg" width="38" height="38" viewBox="0 0 38 38">
  <path id="Tracé_135" data-name="Tracé 135" d="M10.969,0H27.031A10.969,10.969,0,0,1,38,10.969V27.031A10.969,10.969,0,0,1,27.031,38H10.969A10.969,10.969,0,0,1,0,27.031V10.969A10.969,10.969,0,0,1,10.969,0Z" fill="#d34a3c"/>
  <path id="Tracé_92" data-name="Tracé 92" d="M8.827,0a8.827,8.827,0,1,0,8.827,8.827A8.827,8.827,0,0,0,8.827,0Zm-2.5,9.78a2.635,2.635,0,0,1-.622.9.474.474,0,0,1-.329.135.479.479,0,0,1-.349-.156.469.469,0,0,1,.015-.68,1.746,1.746,0,0,0,.016-2.5h0a.463.463,0,0,1-.134-.453.508.508,0,0,1,.349-.36.462.462,0,0,1,.457.122,2.646,2.646,0,0,1,.61.908A2.751,2.751,0,0,1,6.323,9.78Zm1.455,1.626a.471.471,0,0,1-.39.211.5.5,0,0,1-.279-.089.471.471,0,0,1-.129-.667A3.8,3.8,0,0,0,7,6.615H7a.482.482,0,0,1,.8-.537,4.766,4.766,0,0,1-.023,5.328Zm1.923.767a.469.469,0,0,1-.406.238.5.5,0,0,1-.253-.071.471.471,0,0,1-.172-.657,5.845,5.845,0,0,0,.049-5.832h0a.464.464,0,0,1,0-.474.5.5,0,0,1,.436-.247.462.462,0,0,1,.405.244A6.8,6.8,0,0,1,9.7,12.173Zm1.915.743a.469.469,0,0,1-.309.242.486.486,0,0,1-.105.011.5.5,0,0,1-.238-.061.5.5,0,0,1-.23-.26.473.473,0,0,1,.032-.391A7.922,7.922,0,0,0,11.7,8.766a7.856,7.856,0,0,0-.9-3.7.463.463,0,0,1,.013-.474.51.51,0,0,1,.443-.234.462.462,0,0,1,.4.257A8.824,8.824,0,0,1,12.667,8.77,8.869,8.869,0,0,1,11.616,12.917Z" transform="translate(10.101 15.242)" fill="#fff"/>
  <text id="CPS" transform="translate(13 12)" fill="#fff" font-size="7" font-family="Lato-Black, Lato" font-weight="800"><tspan x="0" y="0">CPS</tspan></text>
</svg>
