<svg id="Composant_12_8" data-name="Composant 12 – 8" xmlns="http://www.w3.org/2000/svg" width="38" height="38" viewBox="0 0 38 38">
  <path id="Tracé_136" data-name="Tracé 136" d="M10.969,0H27.031A10.969,10.969,0,0,1,38,10.969V27.031A10.969,10.969,0,0,1,27.031,38H10.969A10.969,10.969,0,0,1,0,27.031V10.969A10.969,10.969,0,0,1,10.969,0Z" fill="#5fd67a"/>
  <text id="Sesam_Vitale" data-name="Sesam
Vitale" transform="translate(19.094 6.911)" fill="#fff" font-size="5" font-family="Lato-Black, Lato" font-weight="800"><tspan x="-7.267" y="0">Sesam</tspan><tspan x="-6.696" y="5">Vitale</tspan></text>
  <path id="Tracé_97" data-name="Tracé 97" d="M8.777,0a8.777,8.777,0,1,0,8.777,8.777A8.777,8.777,0,0,0,8.777,0ZM6.288,9.725a2.62,2.62,0,0,1-.618.9.471.471,0,0,1-.327.135A.476.476,0,0,1,5,10.6a.467.467,0,0,1,.015-.676A1.736,1.736,0,0,0,5.026,7.44h0a.46.46,0,0,1-.133-.451.505.505,0,0,1,.348-.358.46.46,0,0,1,.455.121,2.631,2.631,0,0,1,.607.9,2.736,2.736,0,0,1-.014,2.07Zm1.447,1.617a.468.468,0,0,1-.388.21.494.494,0,0,1-.277-.088.468.468,0,0,1-.128-.664,3.777,3.777,0,0,0,.019-4.223h0a.48.48,0,0,1,.8-.534,4.739,4.739,0,0,1-.023,5.3Zm1.913.763a.466.466,0,0,1-.4.237.493.493,0,0,1-.252-.071.468.468,0,0,1-.171-.653,5.813,5.813,0,0,0,.049-5.8h0a.461.461,0,0,1,0-.471A.5.5,0,0,1,9.3,5.1a.46.46,0,0,1,.4.243A6.761,6.761,0,0,1,9.648,12.105Zm1.9.739a.467.467,0,0,1-.307.24.483.483,0,0,1-.1.011.5.5,0,0,1-.237-.06.493.493,0,0,1-.229-.258.47.47,0,0,1,.031-.389,7.877,7.877,0,0,0,.933-3.672,7.812,7.812,0,0,0-.89-3.68.46.46,0,0,1,.013-.471.507.507,0,0,1,.441-.233.459.459,0,0,1,.4.256,8.775,8.775,0,0,1,1,4.132A8.819,8.819,0,0,1,11.551,12.844Z" transform="translate(10.233 15.341)" fill="#fff"/>
</svg>
