<?xml version="1.0" encoding="utf-8"?>
<!-- Generator: Adobe Illustrator 24.0.2, SVG Export Plug-In . SVG Version: 6.00 Build 0)  -->
<svg version="1.1" id="Composant_21_1" xmlns="http://www.w3.org/2000/svg" xmlns:xlink="http://www.w3.org/1999/xlink" x="0px"
	 y="0px" viewBox="0 0 67.9 67.9" style="enable-background:new 0 0 67.9 67.9;" xml:space="preserve">
<style type="text/css">
	.st0{fill:#FFFFFF;}
	.st1{fill:#F09067;}
</style>
<rect x="17.8" y="21.5" class="st0" width="35.8" height="30.8"/>
<g>
	<path class="st1" d="M67,48.6l-10.7-36c-3.5-12-18.6-16.7-26.9-8.4L4.1,29.4c-8.3,8.3-3.6,23.4,8.5,26.9L48.5,67
		C60.4,70.6,70.5,60.4,67,48.6z M51.6,46.4c0,2.1-1.7,3.8-3.8,3.8H22.7c-2.1,0-3.8-1.7-3.8-3.8V27.2c0-2.1,1.7-3.8,3.8-3.8h25.1
		c2.1,0,3.8,1.7,3.8,3.8C51.6,27.2,51.6,46.4,51.6,46.4z"/>
	<path class="st1" d="M28.9,38.3c-2.3-0.1-4.4,1.2-5.6,3.2v1.6h11.1v-1.6C33.4,39.5,31.2,38.3,28.9,38.3z"/>
	<path class="st1" d="M38.4,32.8h4.1c0.4,0,0.8-0.3,0.8-0.8s-0.3-0.8-0.8-0.8h-4.1c-0.4,0-0.8,0.3-0.8,0.8S38,32.8,38.4,32.8z"/>
	<path class="st1" d="M28.9,37c1.8,0,3.2-1.4,3.2-3.2l0,0c0-1.8-1.4-3.2-3.2-3.2s-3.2,1.4-3.2,3.2C25.7,35.6,27.2,37,28.9,37z"/>
	<path class="st1" d="M46.8,35.8h-8.4l0,0c-0.4,0-0.8,0.3-0.8,0.8c0,0.4,0.3,0.8,0.8,0.8h8.4c0.4,0,0.8-0.3,0.8-0.8
		S47.2,35.8,46.8,35.8z"/>
	<path class="st1" d="M46.8,40.4h-8.4c-0.4,0-0.8,0.3-0.8,0.8S38,42,38.4,42h8.4c0.4,0,0.8-0.3,0.8-0.8S47.2,40.4,46.8,40.4z"/>
</g>
</svg>
