<?xml version="1.0" encoding="utf-8"?>
<!-- Generator: Adobe Illustrator 24.0.2, SVG Export Plug-In . SVG Version: 6.00 Build 0)  -->
<svg version="1.1" id="Composant_19_2" xmlns="http://www.w3.org/2000/svg" xmlns:xlink="http://www.w3.org/1999/xlink" x="0px"
	 y="0px" viewBox="0 0 554.4 522" style="enable-background:new 0 0 554.4 522;" xml:space="preserve">
<style type="text/css">
	.st0{fill:#FFFFFF;}
	.st1{font-family:'Lato-Bold';}
	.st2{font-size:54px;}
	.st3{opacity:9.600000e-02;fill:#FFFFFF;enable-background:new    ;}
	.st4{opacity:0.248;fill:#FFFFFF;enable-background:new    ;}
	.st5{opacity:0.198;fill:#FFFFFF;enable-background:new    ;}
	.st6{opacity:6.600000e-02;fill:#FFFFFF;enable-background:new    ;}
	.st7{opacity:0.298;fill:#FFFFFF;enable-background:new    ;}
	.st8{opacity:0.272;fill:#FFFFFF;enable-background:new    ;}
</style>
<path class="st0" d="M465.3,161.9H355.7c-9.3,0-16.8,7.5-16.8,16.8c0,0,0,0,0,0v83.8c0,9.3,7.5,16.8,16.8,16.8c0,0,0,0,0,0h109.5
	c9.3,0,16.8-7.5,16.8-16.8v-83.8C482,169.4,474.5,161.9,465.3,161.9z M424.3,196.3h18.1c1.9,0,3.4,1.5,3.4,3.4s-1.5,3.4-3.4,3.4
	h-18.1c-1.9,0-3.4-1.5-3.4-3.4S422.4,196.3,424.3,196.3z M382.8,190.6c7.7,0,13.9,6.2,13.9,13.9v0c0,7.7-6.2,13.9-13.9,13.9
	c-7.7,0-13.9-6.2-13.9-13.9C368.9,196.9,375.1,190.6,382.8,190.6z M407.2,248.2h-48.7v-7c4.9-8.8,14.3-14.2,24.3-13.9
	c10.1-0.3,19.5,5.1,24.4,13.9V248.2z M460.8,243.2h-36.5c-1.9,0-3.4-1.5-3.4-3.4s1.5-3.4,3.4-3.4h36.5c1.9,0,3.4,1.5,3.4,3.4
	S462.6,243.2,460.8,243.2z M460.8,223.1h-36.5c-1.9,0-3.4-1.5-3.4-3.4s1.5-3.4,3.4-3.4h36.5c1.9,0,3.4,1.5,3.4,3.4
	S462.6,223.1,460.8,223.1z"/>
<path class="st3" d="M282.9,206.2h-35.5c-3,0-5.4,2.4-5.4,5.4v27.2c0,3,2.4,5.4,5.4,5.4h35.5c3,0,5.4-2.4,5.4-5.4v-27.2
	C288.3,208.7,285.9,206.2,282.9,206.2z M269.6,217.4h5.9c0.6,0,1.1,0.5,1.1,1.1c0,0.6-0.5,1.1-1.1,1.1h-5.9c-0.6,0-1.1-0.5-1.1-1.1
	C268.5,217.9,269,217.4,269.6,217.4z M256,216.1c2.5,0,4.5,2,4.5,4.5v0c0,2.5-2,4.5-4.5,4.5c-2.5,0-4.5-2-4.5-4.5
	C251.5,218.2,253.5,216.1,256,216.1z M264.1,234.2h-15.8v-2.3c1.6-2.9,4.6-4.6,7.9-4.5c3.3-0.1,6.3,1.7,7.9,4.5V234.2z M281.4,232.6
	h-11.8c-0.6,0-1.1-0.5-1.1-1.1c0-0.6,0.5-1.1,1.1-1.1h11.8c0.6,0,1.1,0.5,1.1,1.1C282.5,232.1,282,232.6,281.4,232.6z M281.4,226.1
	h-11.8c-0.6,0-1.1-0.5-1.1-1.1c0-0.6,0.5-1.1,1.1-1.1h11.8c0.6,0,1.1,0.5,1.1,1.1C282.5,225.6,282,226.1,281.4,226.1z"/>
<path class="st4" d="M222.6,268.2h-68.9c-5.8,0-10.5,4.7-10.5,10.5v52.7c0,5.8,4.7,10.5,10.5,10.5h68.9c5.8,0,10.5-4.7,10.5-10.5
	v-52.7C233.1,273,228.4,268.2,222.6,268.2z M196.8,289.9h11.4c1.2,0,2.1,1,2.1,2.2c0,1.1-0.9,2-2.1,2.1h-11.4c-1.2,0-2.1-1-2.1-2.2
	C194.8,290.8,195.7,289.9,196.8,289.9z M170.8,287.7c4.8,0,8.8,3.9,8.8,8.7v0c0,4.8-3.9,8.7-8.7,8.7c-4.8,0-8.8-3.9-8.8-8.7
	C162,291.6,165.9,287.7,170.8,287.7z M186.1,322.5h-30.6l0-4.4c3.1-5.5,9-8.9,15.3-8.8c6.3-0.2,12.3,3.2,15.3,8.8V322.5z
	 M219.9,319.4C219.8,319.4,219.8,319.4,219.9,319.4h-23.1c-1.2,0-2.1-1-2.1-2.2c0-1.1,0.9-2,2.1-2.1h23c1.2,0,2.1,0.9,2.2,2.1
	S221,319.4,219.9,319.4z M219.9,306.7C219.8,306.7,219.8,306.7,219.9,306.7h-23.1c-1.2,0-2.1-0.9-2.2-2.1c0-1.2,0.9-2.1,2.1-2.2
	c0,0,0.1,0,0.1,0h23c1.2,0,2.1,0.9,2.2,2.1C221.9,305.7,221,306.7,219.9,306.7z"/>
<path class="st5" d="M382.3,339.3H332c-4.3,0-7.7,3.5-7.7,7.7v38.5c0,4.3,3.5,7.7,7.7,7.7h50.4c4.3,0,7.7-3.5,7.7-7.7V347
	C390,342.8,386.6,339.3,382.3,339.3z M363.5,355.1h8.3c0.9,0,1.5,0.7,1.5,1.5s-0.7,1.5-1.5,1.5h-8.3c-0.9,0-1.5-0.7-1.5-1.5
	S362.6,355.1,363.5,355.1z M344.4,353.1c3.5,0,6.4,2.9,6.4,6.4v0c0,3.5-2.9,6.4-6.4,6.4c-3.5,0-6.4-2.9-6.4-6.4
	S340.9,353.1,344.4,353.1z M355.6,379h-22.4v-3.2c2.2-4.1,6.5-6.5,11.2-6.4c4.6-0.1,9,2.3,11.2,6.4V379z M380.3,376.7h-16.8
	c-0.9,0-1.5-0.7-1.5-1.5s0.7-1.5,1.5-1.5h16.8c0.9,0,1.5,0.7,1.5,1.5S381.1,376.7,380.3,376.7z M380.3,367.5h-16.8
	c-0.9,0-1.5-0.7-1.5-1.5s0.7-1.5,1.5-1.5h16.8c0.9,0,1.5,0.7,1.5,1.5S381.1,367.5,380.3,367.5z"/>
<path class="st6" d="M315,283.3h-27.7c-2.3,0-4.2,1.9-4.2,4.2v21.2c0,2.3,1.9,4.2,4.2,4.2H315c2.3,0,4.2-1.9,4.2-4.2v-21.2
	C319.3,285.2,317.4,283.3,315,283.3z M304.6,292h4.6c0.5,0,0.8,0.4,0.8,0.8c0,0.5-0.4,0.9-0.8,0.9h-4.6c-0.5,0-0.8-0.4-0.8-0.9
	C303.8,292.4,304.2,292,304.6,292z M294.1,290.5c1.9,0,3.5,1.6,3.5,3.5v0c0,1.9-1.6,3.5-3.5,3.5c-1.9,0-3.5-1.6-3.5-3.5
	C290.6,292.1,292.2,290.5,294.1,290.5z M300.3,305.2H288v-1.8c1.2-2.2,3.6-3.6,6.2-3.5c2.6-0.1,4.9,1.3,6.2,3.5V305.2z M313.9,303.9
	h-9.3c-0.5,0-0.8-0.4-0.8-0.8s0.4-0.8,0.8-0.8h9.3c0.5,0,0.9,0.4,0.9,0.8S314.3,303.9,313.9,303.9z M313.9,298.8h-9.3
	c-0.5,0-0.8-0.4-0.8-0.8c0-0.5,0.4-0.9,0.8-0.9h9.3c0.5,0,0.9,0.4,0.9,0.9C314.7,298.4,314.3,298.8,313.9,298.8z"/>
<path class="st7" d="M282.9,376.4h-59.4c-5,0-9.1,4.1-9.1,9.1l0,45.5c0,5,4.1,9.1,9.1,9.1h59.4c5,0,9.1-4.1,9.1-9.1v-45.5
	C292,380.5,287.9,376.4,282.9,376.4z M260.6,395h9.8c1,0,1.8,0.8,1.8,1.8s-0.8,1.8-1.8,1.8h-9.8c-1,0-1.8-0.8-1.8-1.8
	S259.6,395,260.6,395z M238.1,393.3c4.2,0,7.6,3.4,7.6,7.5v0c0,4.2-3.4,7.5-7.5,7.5c-4.2,0-7.6-3.4-7.6-7.5
	C230.6,396.7,234,393.3,238.1,393.3z M251.4,423.2h-26.4l0-3.8c2.6-4.8,7.7-7.7,13.2-7.6c5.5-0.1,10.6,2.8,13.2,7.6V423.2z
	 M280.4,420.5h-19.8c-1,0-1.8-0.8-1.8-1.8s0.8-1.8,1.8-1.8h19.8c1,0,1.8,0.8,1.8,1.8S281.4,420.5,280.4,420.5z M280.4,409.6h-19.8
	c-1,0-1.8-0.8-1.8-1.8s0.8-1.8,1.8-1.8h19.8c1,0,1.8,0.8,1.8,1.8S281.4,409.6,280.4,409.6z"/>
<path class="st8" d="M134.4,397.1H17.8C8,397.1,0,405.1,0,415v89.2c0,9.9,8,17.8,17.8,17.8h116.6c9.9,0,17.8-8,17.8-17.8V415
	C152.3,405.1,144.3,397.1,134.4,397.1z M90.8,433.7H110c2,0,3.6,1.5,3.6,3.5c0,2-1.5,3.6-3.5,3.6c0,0-0.1,0-0.1,0H90.8
	c-2,0-3.5-1.7-3.5-3.6C87.3,435.3,88.9,433.8,90.8,433.7z M46.7,426.1c8.2,0,14.8,6.6,14.8,14.8v0c0,8.2-6.6,14.8-14.8,14.8
	c-8.2,0-14.8-6.6-14.8-14.8C31.9,432.7,38.6,426.1,46.7,426.1z M72.7,489H20.8v-7.4c5.2-9.4,15.2-15.1,25.9-14.8
	c10.7-0.3,20.8,5.4,26,14.8V489z M129.8,483.7c0,0-0.1,0-0.1,0H90.8c-2,0-3.5-1.7-3.5-3.6c0-1.9,1.6-3.5,3.5-3.5h38.9
	c2,0,3.6,1.5,3.6,3.5S131.8,483.7,129.8,483.7z M129.8,462.3c0,0-0.1,0-0.1,0H90.8c-2,0-3.5-1.7-3.5-3.6c0-1.9,1.6-3.5,3.5-3.5h38.9
	c2,0,3.6,1.5,3.6,3.5S131.8,462.2,129.8,462.3z"/>
</svg>
