<svg id="Composant_16_14" data-name="Composant 16 – 14" xmlns="http://www.w3.org/2000/svg" width="494.091" height="520" viewBox="0 0 494.091 520">
  <path id="Tracé_48" data-name="Tracé 48" d="M88.124,0a88.124,88.124,0,1,0,88.124,88.124A88.124,88.124,0,0,0,88.124,0ZM63.132,97.644a26.3,26.3,0,0,1-6.207,8.988,4.729,4.729,0,0,1-3.287,1.353,4.783,4.783,0,0,1-3.489-1.555,4.687,4.687,0,0,1,.152-6.789A17.431,17.431,0,0,0,50.465,74.7h0a4.623,4.623,0,0,1-1.34-4.526,5.074,5.074,0,0,1,3.489-3.59A4.617,4.617,0,0,1,57.178,67.8a26.415,26.415,0,0,1,6.093,9.064,27.466,27.466,0,0,1-.139,20.783Zm14.525,16.232a4.7,4.7,0,0,1-3.894,2.111,4.956,4.956,0,0,1-2.781-.885,4.7,4.7,0,0,1-1.289-6.662,37.924,37.924,0,0,0,.19-42.4h0a4.816,4.816,0,0,1,8-5.36,47.58,47.58,0,0,1-.228,53.2Zm19.2,7.661a4.679,4.679,0,0,1-4.058,2.377,4.945,4.945,0,0,1-2.528-.708,4.7,4.7,0,0,1-1.719-6.561,58.358,58.358,0,0,0,.493-58.227h0a4.628,4.628,0,0,1-.025-4.728,5.033,5.033,0,0,1,4.349-2.465,4.614,4.614,0,0,1,4.045,2.44A67.88,67.88,0,0,1,96.86,121.536Zm19.114,7.421a4.685,4.685,0,0,1-3.085,2.415,4.85,4.85,0,0,1-1.049.114,5,5,0,0,1-2.377-.607,4.946,4.946,0,0,1-2.3-2.592,4.722,4.722,0,0,1,.316-3.906,79.089,79.089,0,0,0,9.367-36.863,78.434,78.434,0,0,0-8.938-36.951,4.623,4.623,0,0,1,.126-4.728,5.092,5.092,0,0,1,4.425-2.339,4.613,4.613,0,0,1,3.969,2.566,88.1,88.1,0,0,1,10.037,41.49A88.548,88.548,0,0,1,115.974,128.957Z" transform="translate(317.843 108.909)" fill="#fff"/>
  <path id="Tracé_126" data-name="Tracé 126" d="M44,0A44,44,0,1,0,88,44,44,44,0,0,0,44,0ZM31.521,48.753a13.133,13.133,0,0,1-3.1,4.488,2.361,2.361,0,0,1-1.641.675,2.388,2.388,0,0,1-1.742-.776,2.34,2.34,0,0,1,.076-3.389A8.7,8.7,0,0,0,25.2,37.3h0a2.308,2.308,0,0,1-.669-2.26,2.533,2.533,0,0,1,1.742-1.793,2.305,2.305,0,0,1,2.279.606,13.189,13.189,0,0,1,3.042,4.526,13.714,13.714,0,0,1-.069,10.377Zm7.252,8.1a2.348,2.348,0,0,1-1.944,1.054,2.474,2.474,0,0,1-1.389-.442,2.348,2.348,0,0,1-.644-3.326,18.935,18.935,0,0,0,.095-21.17h0a2.4,2.4,0,0,1,4-2.676,23.757,23.757,0,0,1-.114,26.56Zm9.588,3.825a2.336,2.336,0,0,1-2.026,1.187,2.469,2.469,0,0,1-1.262-.353,2.346,2.346,0,0,1-.858-3.276,29.138,29.138,0,0,0,.246-29.072h0a2.31,2.31,0,0,1-.013-2.361,2.513,2.513,0,0,1,2.171-1.231,2.3,2.3,0,0,1,2.02,1.218A33.892,33.892,0,0,1,48.361,60.682Zm9.544,3.705a2.339,2.339,0,0,1-1.54,1.206,2.421,2.421,0,0,1-.524.057,2.5,2.5,0,0,1-1.187-.3,2.47,2.47,0,0,1-1.149-1.294,2.358,2.358,0,0,1,.158-1.95A39.488,39.488,0,0,0,58.341,43.7a39.162,39.162,0,0,0-4.462-18.45,2.308,2.308,0,0,1,.063-2.361,2.542,2.542,0,0,1,2.209-1.168A2.3,2.3,0,0,1,58.132,23a43.988,43.988,0,0,1,5.012,20.716A44.211,44.211,0,0,1,57.905,64.387Z" transform="translate(196.843 229.157)" fill="#fff" opacity="0.167"/>
  <path id="Tracé_131" data-name="Tracé 131" d="M85.421,0a85.421,85.421,0,1,0,85.421,85.421A85.421,85.421,0,0,0,85.421,0ZM61.2,94.648a25.5,25.5,0,0,1-6.017,8.712,4.584,4.584,0,0,1-3.186,1.311,4.636,4.636,0,0,1-3.382-1.507,4.543,4.543,0,0,1,.147-6.58,16.9,16.9,0,0,0,.159-24.177h0a4.481,4.481,0,0,1-1.3-4.387A4.918,4.918,0,0,1,51,64.541a4.476,4.476,0,0,1,4.424,1.176A25.605,25.605,0,0,1,61.33,74.5,26.624,26.624,0,0,1,61.2,94.648Zm14.08,15.734a4.558,4.558,0,0,1-3.774,2.046,4.8,4.8,0,0,1-2.7-.858,4.558,4.558,0,0,1-1.25-6.458,36.761,36.761,0,0,0,.184-41.1h0a4.668,4.668,0,0,1,7.757-5.2,46.121,46.121,0,0,1-.221,51.564Zm18.614,7.426a4.536,4.536,0,0,1-3.933,2.3,4.794,4.794,0,0,1-2.451-.686,4.555,4.555,0,0,1-1.667-6.36,56.568,56.568,0,0,0,.478-56.441h0a4.486,4.486,0,0,1-.025-4.583,4.879,4.879,0,0,1,4.215-2.389,4.473,4.473,0,0,1,3.921,2.365A65.8,65.8,0,0,1,93.889,117.808ZM112.416,125a4.541,4.541,0,0,1-2.99,2.34,4.7,4.7,0,0,1-1.017.11,4.843,4.843,0,0,1-2.3-.588,4.8,4.8,0,0,1-2.23-2.512,4.577,4.577,0,0,1,.306-3.786,76.663,76.663,0,0,0,9.08-35.732A76.028,76.028,0,0,0,104.6,49.015a4.481,4.481,0,0,1,.123-4.583,4.936,4.936,0,0,1,4.289-2.267,4.471,4.471,0,0,1,3.848,2.488,85.4,85.4,0,0,1,9.73,40.217A85.832,85.832,0,0,1,112.416,125Z" transform="translate(0 349.157)" fill="#fff" opacity="0.331"/>
  <path id="Tracé_130" data-name="Tracé 130" d="M47.072,0A47.072,47.072,0,1,0,94.144,47.072,47.072,47.072,0,0,0,47.072,0ZM33.722,52.157a14.05,14.05,0,0,1-3.315,4.8,2.526,2.526,0,0,1-1.756.723,2.555,2.555,0,0,1-1.864-.831,2.5,2.5,0,0,1,.081-3.626A9.311,9.311,0,0,0,26.956,39.9h0a2.469,2.469,0,0,1-.716-2.417A2.71,2.71,0,0,1,28.1,35.566a2.466,2.466,0,0,1,2.438.648A14.11,14.11,0,0,1,33.8,41.055a14.671,14.671,0,0,1-.074,11.1Zm7.759,8.67a2.512,2.512,0,0,1-2.08,1.128,2.647,2.647,0,0,1-1.486-.473,2.512,2.512,0,0,1-.689-3.559,20.257,20.257,0,0,0,.1-22.648h0A2.572,2.572,0,0,1,41.6,32.412a25.415,25.415,0,0,1-.122,28.415Zm10.257,4.092a2.5,2.5,0,0,1-2.168,1.269,2.642,2.642,0,0,1-1.351-.378,2.51,2.51,0,0,1-.918-3.5,31.172,31.172,0,0,0,.263-31.1h0a2.472,2.472,0,0,1-.014-2.525,2.688,2.688,0,0,1,2.323-1.317,2.465,2.465,0,0,1,2.161,1.3A36.258,36.258,0,0,1,51.738,64.919Zm10.21,3.964a2.5,2.5,0,0,1-1.648,1.29,2.59,2.59,0,0,1-.56.061,2.7,2.7,0,0,1-2.5-1.708,2.522,2.522,0,0,1,.169-2.087,42.245,42.245,0,0,0,5-19.69A41.9,41.9,0,0,0,57.64,27.01a2.469,2.469,0,0,1,.068-2.525,2.72,2.72,0,0,1,2.363-1.249,2.464,2.464,0,0,1,2.12,1.371,47.059,47.059,0,0,1,5.362,22.162A47.3,47.3,0,0,1,61.948,68.883Z" transform="translate(190.699 347.157)" fill="#fff" opacity="0.383"/>
  <path id="Tracé_132" data-name="Tracé 132" d="M23,0A23,23,0,1,0,46,23,23,23,0,0,0,23,0ZM16.476,25.483a6.864,6.864,0,0,1-1.62,2.346,1.234,1.234,0,0,1-.858.353,1.248,1.248,0,0,1-.911-.406A1.223,1.223,0,0,1,13.127,26a4.549,4.549,0,0,0,.043-6.509h0a1.206,1.206,0,0,1-.35-1.181,1.324,1.324,0,0,1,.911-.937,1.205,1.205,0,0,1,1.191.317,6.894,6.894,0,0,1,1.59,2.365,7.168,7.168,0,0,1-.036,5.424Zm3.791,4.236a1.227,1.227,0,0,1-1.016.551,1.293,1.293,0,0,1-.726-.231,1.227,1.227,0,0,1-.337-1.739,9.9,9.9,0,0,0,.049-11.065h0a1.257,1.257,0,0,1,2.088-1.4,12.417,12.417,0,0,1-.059,13.883Zm5.011,2a1.221,1.221,0,0,1-1.059.62,1.291,1.291,0,0,1-.66-.185,1.226,1.226,0,0,1-.449-1.712,15.23,15.23,0,0,0,.129-15.2h0a1.208,1.208,0,0,1-.007-1.234,1.314,1.314,0,0,1,1.135-.643A1.2,1.2,0,0,1,25.423,14,17.715,17.715,0,0,1,25.278,31.718Zm4.988,1.937a1.223,1.223,0,0,1-.8.63,1.265,1.265,0,0,1-.274.03,1.3,1.3,0,0,1-.62-.158,1.291,1.291,0,0,1-.6-.676,1.232,1.232,0,0,1,.082-1.019,20.64,20.64,0,0,0,2.445-9.62A20.469,20.469,0,0,0,28.162,13.2a1.207,1.207,0,0,1,.033-1.234,1.329,1.329,0,0,1,1.155-.61,1.2,1.2,0,0,1,1.036.67A22.992,22.992,0,0,1,33,22.85,23.109,23.109,0,0,1,30.266,33.655Z" transform="translate(141.699 305.157)" fill="#fff" opacity="0.273"/>
  <path id="Tracé_128" data-name="Tracé 128" d="M31.556,0A31.556,31.556,0,1,0,63.111,31.556,31.556,31.556,0,0,0,31.556,0ZM22.606,34.964a9.419,9.419,0,0,1-2.223,3.218,1.693,1.693,0,0,1-1.177.484,1.713,1.713,0,0,1-1.249-.557,1.678,1.678,0,0,1,.054-2.431,6.242,6.242,0,0,0,.059-8.931h0a1.655,1.655,0,0,1-.48-1.621,1.817,1.817,0,0,1,1.249-1.286,1.653,1.653,0,0,1,1.634.435,9.459,9.459,0,0,1,2.182,3.246,9.835,9.835,0,0,1-.05,7.442Zm5.2,5.812a1.684,1.684,0,0,1-1.394.756,1.775,1.775,0,0,1-1-.317,1.684,1.684,0,0,1-.462-2.386,13.58,13.58,0,0,0,.068-15.183h0a1.724,1.724,0,0,1,2.865-1.919,17.038,17.038,0,0,1-.081,19.048Zm6.876,2.743a1.676,1.676,0,0,1-1.453.851,1.771,1.771,0,0,1-.905-.253,1.683,1.683,0,0,1-.616-2.349,20.9,20.9,0,0,0,.177-20.85h0a1.657,1.657,0,0,1-.009-1.693,1.8,1.8,0,0,1,1.557-.883,1.652,1.652,0,0,1,1.449.874A24.306,24.306,0,0,1,34.684,43.52Zm6.844,2.657a1.677,1.677,0,0,1-1.1.865,1.737,1.737,0,0,1-.376.041,1.789,1.789,0,0,1-.851-.217,1.771,1.771,0,0,1-.824-.928,1.691,1.691,0,0,1,.113-1.4,28.32,28.32,0,0,0,3.354-13.2,28.086,28.086,0,0,0-3.2-13.232,1.655,1.655,0,0,1,.045-1.693,1.823,1.823,0,0,1,1.584-.837,1.652,1.652,0,0,1,1.421.919,31.547,31.547,0,0,1,3.594,14.857A31.707,31.707,0,0,1,41.528,46.177Z" transform="translate(304.843 303.157)" fill="#fff" opacity="0.169"/>
  <path id="Tracé_127" data-name="Tracé 127" d="M22,0A22,22,0,1,0,44,22,22,22,0,0,0,22,0ZM15.761,24.376a6.566,6.566,0,0,1-1.55,2.244,1.181,1.181,0,0,1-.821.338,1.194,1.194,0,0,1-.871-.388,1.17,1.17,0,0,1,.038-1.695,4.352,4.352,0,0,0,.041-6.227h0a1.154,1.154,0,0,1-.335-1.13,1.267,1.267,0,0,1,.871-.9,1.153,1.153,0,0,1,1.139.3A6.6,6.6,0,0,1,15.8,19.188a6.857,6.857,0,0,1-.035,5.188Zm3.626,4.052a1.174,1.174,0,0,1-.972.527,1.237,1.237,0,0,1-.694-.221,1.174,1.174,0,0,1-.322-1.663,9.468,9.468,0,0,0,.047-10.585h0a1.2,1.2,0,0,1,2-1.338,11.878,11.878,0,0,1-.057,13.28Zm4.794,1.912a1.168,1.168,0,0,1-1.013.593,1.235,1.235,0,0,1-.631-.177,1.173,1.173,0,0,1-.429-1.638,14.569,14.569,0,0,0,.123-14.536h0a1.155,1.155,0,0,1-.006-1.18,1.257,1.257,0,0,1,1.086-.615,1.152,1.152,0,0,1,1.01.609A16.946,16.946,0,0,1,24.181,30.341Zm4.772,1.853a1.169,1.169,0,0,1-.77.6,1.211,1.211,0,0,1-.262.028,1.247,1.247,0,0,1-.593-.151,1.235,1.235,0,0,1-.574-.647,1.179,1.179,0,0,1,.079-.975,19.744,19.744,0,0,0,2.339-9.2,19.581,19.581,0,0,0-2.231-9.225,1.154,1.154,0,0,1,.032-1.18,1.271,1.271,0,0,1,1.1-.584,1.152,1.152,0,0,1,.991.641,21.994,21.994,0,0,1,2.506,10.358A22.106,22.106,0,0,1,28.953,32.194Z" transform="translate(240.843 164.157)" fill="#fff" opacity="0.073"/>
</svg>
