<?xml version="1.0" encoding="utf-8"?>
<!-- Generator: Adobe Illustrator 24.0.2, SVG Export Plug-In . SVG Version: 6.00 Build 0)  -->
<svg version="1.1" id="Composant_16_14" xmlns="http://www.w3.org/2000/svg" xmlns:xlink="http://www.w3.org/1999/xlink" x="0px"
	 y="0px" viewBox="0 0 358.5 118.9" style="enable-background:new 0 0 358.5 118.9;" xml:space="preserve">
<style type="text/css">
	.st0{enable-background:new    ;}
	.st1{fill:#FFFFFF;}
	.st2{fill:url(#SVGID_1_);}
	.st3{fill:none;stroke:#FFFFFF;stroke-width:6;}
	.st4{fill:url(#SVGID_2_);}
	.st5{fill:url(#SVGID_3_);}
	.st6{fill:#D34A3C;}
</style>
<g id="Groupe_189" transform="translate(141.502 10.708)">
	<g class="st0">
		<path class="st1" d="M45.5,21.1H33.1V56h-7.7V21.1H13v-6.3h32.5V21.1z"/>
		<path class="st1" d="M55.9,26.3c2.2,0,4.1,0.4,5.9,1.1c1.8,0.7,3.3,1.7,4.6,3c1.3,1.3,2.2,2.9,2.9,4.7c0.7,1.9,1,3.9,1,6.2
			c0,2.3-0.3,4.4-1,6.3c-0.7,1.9-1.7,3.4-2.9,4.8c-1.3,1.3-2.8,2.3-4.6,3s-3.7,1.1-5.9,1.1c-2.2,0-4.2-0.4-6-1.1s-3.3-1.7-4.6-3
			c-1.3-1.3-2.2-2.9-2.9-4.8s-1-4-1-6.3c0-2.3,0.3-4.4,1-6.2s1.7-3.4,2.9-4.7c1.3-1.3,2.8-2.3,4.6-3C51.7,26.7,53.7,26.3,55.9,26.3z
			 M55.9,51c2.4,0,4.2-0.8,5.4-2.5c1.2-1.6,1.8-4,1.8-7.2c0-3.2-0.6-5.6-1.8-7.2c-1.2-1.7-3-2.5-5.4-2.5c-2.5,0-4.3,0.8-5.5,2.5
			c-1.2,1.7-1.8,4.1-1.8,7.2c0,3.1,0.6,5.5,1.8,7.2C51.6,50.2,53.4,51,55.9,51z"/>
		<path class="st1" d="M88.6,26.3c2.2,0,4.1,0.4,5.9,1.1c1.8,0.7,3.3,1.7,4.6,3c1.3,1.3,2.2,2.9,2.9,4.7c0.7,1.9,1,3.9,1,6.2
			c0,2.3-0.3,4.4-1,6.3c-0.7,1.9-1.7,3.4-2.9,4.8c-1.3,1.3-2.8,2.3-4.6,3c-1.8,0.7-3.7,1.1-5.9,1.1c-2.2,0-4.2-0.4-6-1.1
			c-1.8-0.7-3.3-1.7-4.6-3c-1.3-1.3-2.2-2.9-2.9-4.8c-0.7-1.9-1-4-1-6.3c0-2.3,0.3-4.4,1-6.2c0.7-1.9,1.7-3.4,2.9-4.7
			c1.3-1.3,2.8-2.3,4.6-3C84.4,26.7,86.4,26.3,88.6,26.3z M88.6,51c2.4,0,4.2-0.8,5.4-2.5c1.2-1.6,1.8-4,1.8-7.2
			c0-3.2-0.6-5.6-1.8-7.2c-1.2-1.7-3-2.5-5.4-2.5c-2.5,0-4.3,0.8-5.5,2.5c-1.2,1.7-1.8,4.1-1.8,7.2c0,3.1,0.6,5.5,1.8,7.2
			C84.3,50.2,86.1,51,88.6,51z"/>
		<path class="st1" d="M115.5,13.6V56h-7V13.6H115.5z"/>
		<path class="st1" d="M129.6,30.3c1.2-1.2,2.5-2.2,3.9-2.9s3.1-1.1,4.9-1.1c1.7,0,3.2,0.3,4.6,1c1.4,0.7,2.5,1.6,3.5,2.9
			c1,1.2,1.7,2.8,2.2,4.5c0.5,1.8,0.8,3.8,0.8,6c0,2.4-0.3,4.5-0.9,6.5c-0.6,1.9-1.4,3.6-2.5,5c-1.1,1.4-2.4,2.4-3.9,3.2
			s-3.2,1.1-5.1,1.1c-0.9,0-1.7-0.1-2.5-0.3c-0.7-0.2-1.4-0.4-2.1-0.8c-0.6-0.3-1.2-0.7-1.7-1.2s-1-1-1.5-1.6l-0.3,2
			c-0.1,0.5-0.3,0.8-0.6,1.1s-0.7,0.3-1.1,0.3h-4.6V13.6h7V30.3z M129.6,48.4c0.8,1,1.7,1.7,2.6,2.1c0.9,0.4,1.9,0.6,3,0.6
			c1.1,0,2.1-0.2,2.9-0.6s1.6-1,2.2-1.8c0.6-0.8,1.1-1.9,1.4-3.2c0.3-1.3,0.5-2.8,0.5-4.6c0-3.2-0.5-5.5-1.6-7
			c-1.1-1.4-2.6-2.2-4.6-2.2c-1.3,0-2.5,0.3-3.5,0.9c-1,0.6-2,1.5-2.9,2.6V48.4z"/>
		<path class="st1" d="M167.9,26.3c2.2,0,4.1,0.4,5.9,1.1c1.8,0.7,3.3,1.7,4.6,3c1.3,1.3,2.2,2.9,2.9,4.7c0.7,1.9,1,3.9,1,6.2
			c0,2.3-0.3,4.4-1,6.3c-0.7,1.9-1.7,3.4-2.9,4.8c-1.3,1.3-2.8,2.3-4.6,3c-1.8,0.7-3.7,1.1-5.9,1.1c-2.2,0-4.2-0.4-6-1.1
			c-1.8-0.7-3.3-1.7-4.6-3c-1.3-1.3-2.2-2.9-2.9-4.8c-0.7-1.9-1-4-1-6.3c0-2.3,0.3-4.4,1-6.2c0.7-1.9,1.7-3.4,2.9-4.7
			c1.3-1.3,2.8-2.3,4.6-3C163.7,26.7,165.7,26.3,167.9,26.3z M167.9,51c2.4,0,4.2-0.8,5.4-2.5c1.2-1.6,1.8-4,1.8-7.2
			c0-3.2-0.6-5.6-1.8-7.2c-1.2-1.7-3-2.5-5.4-2.5c-2.5,0-4.3,0.8-5.5,2.5c-1.2,1.7-1.8,4.1-1.8,7.2c0,3.1,0.6,5.5,1.8,7.2
			C163.6,50.2,165.4,51,167.9,51z"/>
		<path class="st1" d="M212.5,56h-6.8c-0.5,0-0.9-0.1-1.2-0.4c-0.3-0.3-0.6-0.6-0.8-0.9l-6.2-10.2c-0.1,0.3-0.2,0.6-0.3,0.9
			c-0.1,0.3-0.3,0.6-0.4,0.8l-5.5,8.5c-0.2,0.3-0.5,0.6-0.8,0.9c-0.3,0.3-0.7,0.4-1.1,0.4h-6.3l10-15.1l-9.6-14.2h6.8
			c0.5,0,0.9,0.1,1.1,0.2c0.2,0.1,0.5,0.4,0.7,0.7l6.1,9.7c0.2-0.6,0.5-1.3,0.9-1.9l4.9-7.7c0.4-0.7,1-1.1,1.6-1.1h6.5l-9.6,13.9
			L212.5,56z"/>
	</g>
	<g class="st0">
		<path class="st1" d="M5.1,102.5v-2.3H21v2.3H5.1z"/>
		<path class="st1" d="M24.3,99.7v-2.8c2.3,1.1,4.5,1.7,6.4,1.7c0.8,0,1.6-0.2,2.3-0.5c0.7-0.3,1.3-0.8,1.7-1.3
			c0.4-0.6,0.6-1.2,0.6-1.9c0-0.8-0.3-1.5-0.8-2.2s-1.5-1.5-2.9-2.3L30,89.6l-1.5-0.9c-2.7-1.6-4-3.5-4-5.9c0-1.7,0.6-3.2,1.8-4.3
			c1.2-1.2,3-1.8,5.6-1.8c1.6,0,3.2,0.2,4.7,0.7V80c-1.7-0.6-3.3-1-4.9-1c-1.3,0-2.3,0.3-3,1s-1.2,1.5-1.2,2.4
			c0,0.9,0.3,1.7,0.9,2.3c0.6,0.6,1.4,1.2,2.3,1.7l1.2,0.7l1.4,0.9l1.2,0.7c2.5,1.5,3.7,3.4,3.7,5.7c0,1.8-0.6,3.3-1.9,4.5
			c-1.3,1.3-3.3,1.9-6.1,1.9c-0.9,0-1.8-0.1-2.6-0.2S25.6,100.2,24.3,99.7z"/>
		<path class="st1" d="M53,96.5c-0.8,1.4-1.8,2.4-3,3.1c-1.2,0.7-2.2,1-3.2,1c-1.4,0-2.6-0.6-3.7-1.8c-1.1-1.2-1.6-3-1.6-5.4
			c0-1.9,0.4-3.6,1.1-5.1c0.7-1.5,1.7-2.7,2.9-3.5c1.2-0.9,2.7-1.3,4.5-1.3c0.5,0,1.3,0.1,2.3,0.2c0.2,0,0.4,0,0.7,0.1h2.7v11.6
			c0,2,0.2,3.6,0.6,4.8h-2.8C53.3,99.3,53.2,98.1,53,96.5z M53.1,93.3v-7c-1-0.3-1.9-0.4-2.7-0.4c-1.7,0-3.1,0.7-4.2,2
			c-1.1,1.3-1.7,3.1-1.7,5.3c0,1.6,0.3,2.8,0.9,3.7s1.3,1.2,2.1,1.2c0.9,0,1.8-0.4,2.8-1.3C51.3,95.9,52.2,94.7,53.1,93.3z"/>
		<path class="st1" d="M60.3,100.2V83.8H63v3.6c0.8-1.3,1.7-2.2,2.8-3s2.2-1.1,3.3-1.1c1,0,1.8,0.3,2.6,0.8c0.8,0.5,1.3,1.2,1.7,2
			s0.5,2.5,0.5,4.9v9.1h-2.7v-9.5c0-1.6-0.1-2.6-0.2-3.1s-0.4-0.9-0.8-1.2s-0.8-0.5-1.3-0.5c-1,0-2,0.5-3.1,1.4s-2,2-2.7,3.4v9.5
			H60.3z"/>
		<path class="st1" d="M92,99.5c-1.3,0.5-2.2,0.9-2.8,1c-0.6,0.1-1.1,0.2-1.7,0.2c-1.1,0-2.2-0.2-3.1-0.7s-1.7-1.1-2.1-1.9
			s-0.7-2.2-0.7-4v-6.6h-4.1v-2.3h4.1v-6.6h2.7v6.6h7.3v2.3h-7.3V94c0,1.3,0.2,2.2,0.5,2.8c0.3,0.5,0.7,0.9,1.3,1.2s1.1,0.4,1.9,0.4
			c1.3,0,2.7-0.4,4.2-1.2V99.5z"/>
		<path class="st1" d="M109.9,99.1c-2.2,1-4.2,1.5-6.2,1.5c-1.5,0-2.8-0.4-4-1.1s-2.1-1.8-2.8-3.1s-1-2.8-1-4.4c0-1.5,0.3-2.9,1-4.3
			s1.6-2.4,2.8-3.2c1.2-0.8,2.5-1.1,4-1.1c1.9,0,3.5,0.7,4.7,2.1c1.2,1.4,1.8,3.5,1.8,6.4v0.6H98.9c0,1.1,0.2,2.2,0.7,3.1
			s1.1,1.6,1.9,2.1c0.8,0.5,1.7,0.7,2.6,0.7c1.8,0,3.7-0.6,5.8-1.8V99.1z M99,90.4h8.2V90c0-1.3-0.3-2.4-1-3.2
			c-0.7-0.8-1.5-1.2-2.6-1.2c-1.1,0-2.1,0.4-2.9,1.2C99.9,87.7,99.3,88.9,99,90.4z M100.5,81.3l4.3-4.8h3.2l-5,4.8H100.5z"/>
	</g>
</g>
<g id="Rectangle_69" transform="translate(65.996 38.892)">
	
		<linearGradient id="SVGID_1_" gradientUnits="userSpaceOnUse" x1="-281.8191" y1="415.0289" x2="-282.5501" y2="415.9539" gradientTransform="matrix(66.506 0 0 -66.507 18800.4492 27666.6309)">
		<stop  offset="0" style="stop-color:#7613E0"/>
		<stop  offset="1" style="stop-color:#9F57ED"/>
	</linearGradient>
	<path class="st2" d="M22,0h22.5c12.2,0,22,9.8,22,22v22.5c0,12.2-9.8,22-22,22H22c-12.2,0-22-9.8-22-22V22C0,9.8,9.8,0,22,0z"/>
	<path class="st3" d="M22,3h22.5c10.5,0,19,8.5,19,19v22.5c0,10.5-8.5,19-19,19H22c-10.5,0-19-8.5-19-19V22C3,11.5,11.5,3,22,3z"/>
</g>
<g id="Rectangle_70" transform="translate(110.109) rotate(90)">
	
		<linearGradient id="SVGID_2_" gradientUnits="userSpaceOnUse" x1="463.2071" y1="324.8431" x2="463.9101" y2="325.6531" gradientTransform="matrix(0 -66.506 -66.507 0 21614.5605 30812.7578)">
		<stop  offset="0" style="stop-color:#67ED9A"/>
		<stop  offset="1" style="stop-color:#4AC87A"/>
	</linearGradient>
	<path class="st4" d="M22,0h22.5c12.2,0,22,9.8,22,22v22.5c0,12.2-9.8,22-22,22H22c-12.2,0-22-9.8-22-22V22C0,9.8,9.8,0,22,0z"/>
	<path class="st3" d="M22,3h22.5c10.5,0,19,8.5,19,19v22.5c0,10.5-8.5,19-19,19H22c-10.5,0-19-8.5-19-19V22C3,11.5,11.5,3,22,3z"/>
</g>
<g id="Rectangle_71" transform="translate(88.714 52.366) rotate(90)">
	
		<linearGradient id="SVGID_3_" gradientUnits="userSpaceOnUse" x1="409.9691" y1="302.7925" x2="409.3151" y2="301.7925" gradientTransform="matrix(0 -66.506 -66.507 0 20191.6426 27330.1055)">
		<stop  offset="0" style="stop-color:#FFA800"/>
		<stop  offset="1" style="stop-color:#FFC24D"/>
	</linearGradient>
	<path class="st5" d="M22,0h22.5c12.2,0,22,9.8,22,22v22.5c0,12.2-9.8,22-22,22H22c-12.2,0-22-9.8-22-22V22C0,9.8,9.8,0,22,0z"/>
	<path class="st3" d="M22,3h22.5c10.5,0,19,8.5,19,19v22.5c0,10.5-8.5,19-19,19H22c-10.5,0-19-8.5-19-19V22C3,11.5,11.5,3,22,3z"/>
</g>
<g id="Rectangle_72" transform="translate(66.506 13.481) rotate(90)">
	<path class="st6" d="M22,0h22.5c12.2,0,22,9.8,22,22v22.5c0,12.2-9.8,22-22,22H22c-12.2,0-22-9.8-22-22V22C0,9.8,9.8,0,22,0z"/>
	<path class="st3" d="M22,3h22.5c10.5,0,19,8.5,19,19v22.5c0,10.5-8.5,19-19,19H22c-10.5,0-19-8.5-19-19V22C3,11.5,11.5,3,22,3z"/>
</g>
</svg>
