<svg id="Composant_16_14" data-name="Composant 16 – 14" xmlns="http://www.w3.org/2000/svg" xmlns:xlink="http://www.w3.org/1999/xlink" width="358.502" height="118.914" viewBox="0 0 358.502 118.914">
  <defs>
    <linearGradient id="linear-gradient" x1="0.827" y1="1" x2="0.096" y2="0.075" gradientUnits="objectBoundingBox">
      <stop offset="0" stop-color="#7613e0"/>
      <stop offset="1" stop-color="#9f57ed"/>
    </linearGradient>
    <linearGradient id="linear-gradient-2" x1="0.157" y1="0.098" x2="0.86" y2="0.908" gradientUnits="objectBoundingBox">
      <stop offset="0" stop-color="#67ed9a"/>
      <stop offset="1" stop-color="#4ac87a"/>
    </linearGradient>
    <linearGradient id="linear-gradient-3" x1="0.766" y1="1" x2="0.112" gradientUnits="objectBoundingBox">
      <stop offset="0" stop-color="#ffa800"/>
      <stop offset="1" stop-color="#ffc24d"/>
    </linearGradient>
  </defs>
  <g id="Groupe_189" data-name="Groupe 189" transform="translate(141.502 10.708)">
    <text id="_DevBox" data-name=" DevBox" transform="translate(0 56)" fill="#2f78cc" font-size="57" font-family="Lato-Black, Lato" font-weight="800"><tspan x="0" y="0" xml:space="preserve"> DevBox</tspan></text>
    <text id="_Santé" transform="translate(4.012 100.207)" fill="#2f78cc" font-size="30" font-family="Monaco"><tspan x="0" y="0">_Santé</tspan></text>
  </g>
  <g id="Rectangle_69" data-name="Rectangle 69" transform="translate(65.996 38.892)" stroke="#fff" stroke-width="6" fill="url(#linear-gradient)">
    <rect width="66.506" height="66.507" rx="22" stroke="none"/>
    <rect x="3" y="3" width="60.506" height="60.507" rx="19" fill="none"/>
  </g>
  <g id="Rectangle_70" data-name="Rectangle 70" transform="translate(110.109) rotate(90)" stroke="#fff" stroke-width="6" fill="url(#linear-gradient-2)">
    <rect width="66.507" height="66.506" rx="22" stroke="none"/>
    <rect x="3" y="3" width="60.507" height="60.506" rx="19" fill="none"/>
  </g>
  <g id="Rectangle_71" data-name="Rectangle 71" transform="translate(88.714 52.366) rotate(90)" stroke="#fff" stroke-width="6" fill="url(#linear-gradient-3)">
    <rect width="66.507" height="66.506" rx="22" stroke="none"/>
    <rect x="3" y="3" width="60.507" height="60.506" rx="19" fill="none"/>
  </g>
  <g id="Rectangle_72" data-name="Rectangle 72" transform="translate(66.506 13.481) rotate(90)" fill="#d34a3c" stroke="#fff" stroke-width="6">
    <rect width="66.507" height="66.506" rx="22" stroke="none"/>
    <rect x="3" y="3" width="60.507" height="60.506" rx="19" fill="none"/>
  </g>
</svg>
